<?xml version="1.0" encoding="UTF-8" standalone="no" ?>
<!DOCTYPE svg PUBLIC "-//W3C//DTD SVG 1.1//EN" "http://www.w3.org/Graphics/SVG/1.1/DTD/svg11.dtd">
<svg xmlns="http://www.w3.org/2000/svg" xmlns:xlink="http://www.w3.org/1999/xlink" version="1.1" width="1080" height="248" viewBox="496.96 243.77 1080 248" xml:space="preserve">
<desc>Created with Fabric.js 5.2.4</desc>
<defs>
</defs>
<rect x="0" y="0" width="100%" height="100%" fill="transparent"></rect>
<g transform="matrix(1 0 0 1 540 124)" id="89a5ec50-f50e-476e-84ed-883a0e200a11"  >
<rect style="stroke: none; stroke-width: 1; stroke-dasharray: none; stroke-linecap: butt; stroke-dashoffset: 0; stroke-linejoin: miter; stroke-miterlimit: 4; fill: rgb(255,255,255); fill-rule: nonzero; opacity: 1; visibility: hidden;" vector-effect="non-scaling-stroke"  x="-540" y="-124" rx="0" ry="0" width="1080" height="248" />
</g>
<g transform="matrix(Infinity NaN NaN Infinity 0 0)" id="ee716ca3-5950-4dc1-a295-bbea33149cb0"  >
</g>
<g transform="matrix(4.05 0 0 4.05 1037.34 369.5)"  >
<g style="" vector-effect="non-scaling-stroke"   >
		<g transform="matrix(1 0 0 1 -116.65 -2.31)"  >
<path style="stroke: none; stroke-width: 1; stroke-dasharray: none; stroke-linecap: butt; stroke-dashoffset: 0; stroke-linejoin: miter; stroke-miterlimit: 4; fill: rgb(8,91,193); fill-rule: nonzero; opacity: 1;" vector-effect="non-scaling-stroke"  transform=" translate(-133.53, -247.69)" d="M 134.22 238.45 C 135.8 238.45 136.73 238.89999999999998 137.73 240.76999999999998 L 145.97 256.21999999999997 C 146.21 256.64 146.13 256.92999999999995 145.6 256.92999999999995 L 141.59 256.92999999999995 C 141.22 256.92999999999995 141.06 256.81999999999994 140.9 256.55999999999995 L 139.29 253.46999999999994 L 127.82999999999998 253.46999999999994 L 126.24999999999999 256.55999999999995 C 126.11999999999999 256.81999999999994 125.92999999999999 256.92999999999995 125.55999999999999 256.92999999999995 L 121.43999999999998 256.92999999999995 C 120.93999999999998 256.92999999999995 120.85999999999999 256.63999999999993 121.06999999999998 256.21999999999997 L 129.17999999999998 240.76999999999998 C 130.15999999999997 238.89 131.12999999999997 238.45 132.37999999999997 238.45 L 134.22 238.45 z M 129.67 249.86 L 137.41 249.86 L 133.87 243.07000000000002 C 133.79 242.94000000000003 133.71 242.88000000000002 133.58 242.88000000000002 L 133.45000000000002 242.88000000000002 C 133.32000000000002 242.88000000000002 133.24 242.93000000000004 133.13000000000002 243.07000000000002 L 129.67 249.86 z" stroke-linecap="round" />
</g>
		<g transform="matrix(1 0 0 1 -93.28 -0.41)"  >
<path style="stroke: none; stroke-width: 1; stroke-dasharray: none; stroke-linecap: butt; stroke-dashoffset: 0; stroke-linejoin: miter; stroke-miterlimit: 4; fill: rgb(8,91,193); fill-rule: nonzero; opacity: 1;" vector-effect="non-scaling-stroke"  transform=" translate(-156.89, -249.59)" d="M 164.88 242.25 C 165.25 242.25 165.43 242.44 165.43 242.8 L 165.43 245.28 C 165.43 245.65 165.25 245.83 164.88 245.83 L 153.13 245.83 C 152.35999999999999 245.83 152.07 246.12 152.07 246.73000000000002 L 152.07 247.07000000000002 C 152.07 247.60000000000002 152.35999999999999 247.92000000000002 153.13 247.92000000000002 L 161.9 247.92000000000002 C 164.86 247.92000000000002 166.07 249.19000000000003 166.07 251.56 L 166.07 253.14000000000001 C 166.07 255.44000000000003 165.01 256.92 161.87 256.92 L 148.27 256.92 C 147.9 256.92 147.72 256.74 147.72 256.37 L 147.72 253.89000000000001 C 147.72 253.52 147.9 253.34 148.27 253.34 L 160.66000000000003 253.34 C 161.43000000000004 253.34 161.74000000000004 253.05 161.74000000000004 252.42000000000002 L 161.74000000000004 251.73000000000002 C 161.74000000000004 251.23000000000002 161.42000000000004 250.91000000000003 160.66000000000003 250.91000000000003 L 151.89000000000001 250.91000000000003 C 148.93 250.91000000000003 147.72000000000003 249.64000000000001 147.72000000000003 247.24000000000004 L 147.72000000000003 245.97000000000003 C 147.72000000000003 243.72000000000003 148.78000000000003 242.25000000000003 151.92000000000002 242.25000000000003 L 164.88 242.25000000000003 z" stroke-linecap="round" />
</g>
		<g transform="matrix(1 0 0 1 -73.25 -0.43)"  >
<path style="stroke: none; stroke-width: 1; stroke-dasharray: none; stroke-linecap: butt; stroke-dashoffset: 0; stroke-linejoin: miter; stroke-miterlimit: 4; fill: rgb(8,91,193); fill-rule: nonzero; opacity: 1;" vector-effect="non-scaling-stroke"  transform=" translate(-176.93, -249.57)" d="M 185.14 242.25 C 185.54 242.25 185.69 242.44 185.69 242.8 L 185.69 245.41000000000003 C 185.69 245.78000000000003 185.53 245.96000000000004 185.14 245.96000000000004 L 174.94 245.96000000000004 C 173.04 245.96000000000004 172.59 246.51000000000005 172.59 248.52000000000004 L 172.59 250.63000000000005 C 172.59 252.64000000000004 173.04 253.17000000000004 174.94 253.17000000000004 L 185.14 253.17000000000004 C 185.54 253.17000000000004 185.69 253.36000000000004 185.69 253.72000000000006 L 185.69 256.36000000000007 C 185.69 256.7300000000001 185.53 256.9100000000001 185.14 256.9100000000001 L 174.5 256.9100000000001 C 169.69 256.9100000000001 168.16 255.38000000000008 168.16 251.4900000000001 L 168.16 247.63000000000008 C 168.16 243.75000000000009 169.69 242.22000000000008 174.5 242.22000000000008 L 185.14 242.22000000000008 z" stroke-linecap="round" />
</g>
		<g transform="matrix(1 0 0 1 -59.84 -3.16)"  >
<path style="stroke: none; stroke-width: 1; stroke-dasharray: none; stroke-linecap: butt; stroke-dashoffset: 0; stroke-linejoin: miter; stroke-miterlimit: 4; fill: rgb(8,91,193); fill-rule: nonzero; opacity: 1;" vector-effect="non-scaling-stroke"  transform=" translate(-190.33, -246.83)" d="M 191.88 236.73 C 192.32999999999998 236.73 192.57 236.97 192.57 237.42 L 192.57 240.01 C 192.57 240.48999999999998 192.32999999999998 240.7 191.88 240.7 L 188.79 240.7 C 188.34 240.7 188.1 240.48999999999998 188.1 240.01 L 188.1 237.42 C 188.1 236.97 188.34 236.73 188.79 236.73 L 191.88 236.73 z M 191.85 242.25 C 192.32999999999998 242.25 192.56 242.46 192.56 242.94 L 192.56 256.25 C 192.56 256.7 192.32 256.94 191.85 256.94 L 188.79 256.94 C 188.31 256.94 188.1 256.7 188.1 256.25 L 188.1 242.94 C 188.1 242.46 188.31 242.25 188.79 242.25 L 191.85 242.25 z" stroke-linecap="round" />
</g>
		<g transform="matrix(1 0 0 1 -52.19 -3.16)"  >
<path style="stroke: none; stroke-width: 1; stroke-dasharray: none; stroke-linecap: butt; stroke-dashoffset: 0; stroke-linejoin: miter; stroke-miterlimit: 4; fill: rgb(8,91,193); fill-rule: nonzero; opacity: 1;" vector-effect="non-scaling-stroke"  transform=" translate(-198, -246.83)" d="M 199.54 236.73 C 199.98999999999998 236.73 200.23 236.97 200.23 237.42 L 200.23 240.01 C 200.23 240.48999999999998 199.98999999999998 240.7 199.54 240.7 L 196.45 240.7 C 196 240.7 195.76 240.48999999999998 195.76 240.01 L 195.76 237.42 C 195.76 236.97 196 236.73 196.45 236.73 L 199.54 236.73 z M 199.51 242.25 C 199.98999999999998 242.25 200.22 242.46 200.22 242.94 L 200.22 256.25 C 200.22 256.7 199.98 256.94 199.51 256.94 L 196.45 256.94 C 195.97 256.94 195.76 256.7 195.76 256.25 L 195.76 242.94 C 195.76 242.46 195.97 242.25 196.45 242.25 L 199.51 242.25 z" stroke-linecap="round" />
</g>
		<g transform="matrix(1 0 0 1 16.71 -0.41)"  >
<path style="stroke: none; stroke-width: 1; stroke-dasharray: none; stroke-linecap: butt; stroke-dashoffset: 0; stroke-linejoin: miter; stroke-miterlimit: 4; fill: rgb(28,209,131); fill-rule: nonzero; opacity: 1;" vector-effect="non-scaling-stroke"  transform=" translate(-266.89, -249.59)" d="M 270.68 242.25 C 275.49 242.25 277.02 243.78 277.02 247.66 L 277.02 251.52 C 277.02 255.4 275.49 256.94 270.68 256.94 L 263.13 256.94 C 258.32 256.94 256.76 255.41 256.76 251.52 L 256.76 247.66 C 256.76 243.78 258.32 242.25 263.13 242.25 L 270.68 242.25 z M 261.22 250.73 C 261.22 252.73999999999998 261.67 253.29 263.57000000000005 253.29 L 270.2300000000001 253.29 C 272.13000000000005 253.29 272.55000000000007 252.73999999999998 272.55000000000007 250.73 L 272.55000000000007 248.45999999999998 C 272.55000000000007 246.42999999999998 272.13000000000005 245.89999999999998 270.2300000000001 245.89999999999998 L 263.57000000000005 245.89999999999998 C 261.6700000000001 245.89999999999998 261.22 246.42999999999998 261.22 248.45999999999998 L 261.22 250.73 z" stroke-linecap="round" />
</g>
		<g transform="matrix(1 0 0 1 42.93 -0.41)"  >
<path style="stroke: none; stroke-width: 1; stroke-dasharray: none; stroke-linecap: butt; stroke-dashoffset: 0; stroke-linejoin: miter; stroke-miterlimit: 4; fill: rgb(28,209,131); fill-rule: nonzero; opacity: 1;" vector-effect="non-scaling-stroke"  transform=" translate(-293.12, -249.59)" d="M 299.92 242.25 C 304.73 242.25 306.29 243.78 306.29 247.66 L 306.29 256.24 C 306.29 256.69 306.05 256.93 305.6 256.93 L 302.51000000000005 256.93 C 302.06000000000006 256.93 301.82000000000005 256.69 301.82000000000005 256.24 L 301.82000000000005 248.74 C 301.82000000000005 246.76000000000002 301.58000000000004 246.20000000000002 299.68000000000006 246.20000000000002 L 295.3500000000001 246.20000000000002 L 295.3500000000001 256.24 C 295.3500000000001 256.69 295.11000000000007 256.93 294.6600000000001 256.93 L 291.5700000000001 256.93 C 291.1200000000001 256.93 290.8800000000001 256.69 290.8800000000001 256.24 L 290.8800000000001 246.20000000000002 L 286.7600000000001 246.20000000000002 C 284.8600000000001 246.20000000000002 284.4100000000001 246.75000000000003 284.4100000000001 248.74 L 284.4100000000001 256.24 C 284.4100000000001 256.69 284.1700000000001 256.93 283.7200000000001 256.93 L 280.6300000000001 256.93 C 280.1800000000001 256.93 279.9400000000001 256.69 279.9400000000001 256.24 L 279.9400000000001 247.66 C 279.9400000000001 243.78 281.5000000000001 242.25 286.3100000000001 242.25 L 299.92 242.25 z" stroke-linecap="round" />
</g>
		<g transform="matrix(1 0 0 1 68.04 -0.41)"  >
<path style="stroke: none; stroke-width: 1; stroke-dasharray: none; stroke-linecap: butt; stroke-dashoffset: 0; stroke-linejoin: miter; stroke-miterlimit: 4; fill: rgb(28,209,131); fill-rule: nonzero; opacity: 1;" vector-effect="non-scaling-stroke"  transform=" translate(-318.23, -249.59)" d="M 321.26 242.25 C 326.07 242.25 327.63 243.78 327.63 247.66 L 327.63 254.79 C 327.63 256.53 327.21 256.93 325.68 256.93 L 312.97 256.93 C 309.8 256.93 308.82000000000005 255.79000000000002 308.82000000000005 253.13 L 308.82000000000005 251.76 C 308.82000000000005 249.54 309.80000000000007 248.26999999999998 312.97 248.26999999999998 L 323.17 248.26999999999998 L 323.17 247.85 C 323.17 246.5 322.72 245.97 320.82 245.97 L 309.83 245.97 C 309.46 245.97 309.28 245.78 309.28 245.42 L 309.28 242.80999999999997 C 309.28 242.43999999999997 309.46 242.25999999999996 309.83 242.25999999999996 L 321.26 242.25999999999996 z M 323.16 252.76 L 323.16 251.01999999999998 L 314.26000000000005 251.01999999999998 C 313.49000000000007 251.01999999999998 313.20000000000005 251.35999999999999 313.20000000000005 251.99999999999997 L 313.20000000000005 252.49999999999997 C 313.20000000000005 253.18999999999997 313.49000000000007 253.49999999999997 314.26000000000005 253.49999999999997 L 322.50000000000006 253.49999999999997 C 322.98 253.5 323.16 253.29 323.16 252.76 z" stroke-linecap="round" />
</g>
		<g transform="matrix(1 0 0 1 90 -2.97)"  >
<path style="stroke: none; stroke-width: 1; stroke-dasharray: none; stroke-linecap: butt; stroke-dashoffset: 0; stroke-linejoin: miter; stroke-miterlimit: 4; fill: rgb(28,209,131); fill-rule: nonzero; opacity: 1;" vector-effect="non-scaling-stroke"  transform=" translate(-340.18, -247.03)" d="M 345.8 242.25 L 345.8 237.81 C 345.8 237.36 346.04 237.12 346.49 237.12 L 349.58 237.12 C 350.03 237.12 350.27 237.36 350.27 237.81 L 350.27 251.52 C 350.27 255.4 348.74 256.94 343.93 256.94 L 336.46 256.94 C 331.65 256.94 330.09 255.41 330.09 251.52 L 330.09 247.66 C 330.09 243.78 331.65 242.25 336.46 242.25 L 345.8 242.25 z M 345.8 250.65 L 345.8 245.97 L 336.90000000000003 245.97 C 335.00000000000006 245.97 334.55 246.52 334.55 248.53 L 334.55 250.64000000000001 C 334.55 252.65 335 253.18 336.90000000000003 253.18 L 343.48 253.18 C 345.38 253.19 345.8 252.66 345.8 250.65 z" stroke-linecap="round" />
</g>
		<g transform="matrix(1 0 0 1 112.1 -0.41)"  >
<path style="stroke: none; stroke-width: 1; stroke-dasharray: none; stroke-linecap: butt; stroke-dashoffset: 0; stroke-linejoin: miter; stroke-miterlimit: 4; fill: rgb(28,209,131); fill-rule: nonzero; opacity: 1;" vector-effect="non-scaling-stroke"  transform=" translate(-362.27, -249.59)" d="M 370.26 242.25 C 370.63 242.25 370.81 242.44 370.81 242.8 L 370.81 245.28 C 370.81 245.65 370.62 245.83 370.26 245.83 L 358.51 245.83 C 357.74 245.83 357.45 246.12 357.45 246.73000000000002 L 357.45 247.07000000000002 C 357.45 247.60000000000002 357.74 247.92000000000002 358.51 247.92000000000002 L 367.28 247.92000000000002 C 370.23999999999995 247.92000000000002 371.45 249.19000000000003 371.45 251.56 L 371.45 253.14000000000001 C 371.45 255.44000000000003 370.39 256.92 367.25 256.92 L 353.65 256.92 C 353.28 256.92 353.09999999999997 256.74 353.09999999999997 256.37 L 353.09999999999997 253.89000000000001 C 353.09999999999997 253.52 353.28999999999996 253.34 353.65 253.34 L 366.03999999999996 253.34 C 366.80999999999995 253.34 367.11999999999995 253.05 367.11999999999995 252.42000000000002 L 367.11999999999995 251.73000000000002 C 367.11999999999995 251.23000000000002 366.79999999999995 250.91000000000003 366.03999999999996 250.91000000000003 L 357.27 250.91000000000003 C 354.31 250.91000000000003 353.09999999999997 249.64000000000001 353.09999999999997 247.24000000000004 L 353.09999999999997 245.97000000000003 C 353.09999999999997 243.72000000000003 354.15999999999997 242.25000000000003 357.29999999999995 242.25000000000003 L 370.26 242.25000000000003 z" stroke-linecap="round" />
</g>
		<g transform="matrix(1 0 0 1 10.95 13.74)"  >
<path style="stroke: none; stroke-width: 1; stroke-dasharray: none; stroke-linecap: butt; stroke-dashoffset: 0; stroke-linejoin: miter; stroke-miterlimit: 4; fill: rgb(8,91,193); fill-rule: nonzero; opacity: 1;" vector-effect="non-scaling-stroke"  transform=" translate(-261.13, -263.74)" d="M 260.98 266.43 C 259.48 266.43 258.36 265.24 258.36 263.68 C 258.36 262.09000000000003 259.47 261.04 260.98 261.04 L 263.90000000000003 261.04 L 263.90000000000003 261.98 L 260.98 261.98 C 260.02000000000004 261.98 259.3 262.70000000000005 259.3 263.72 C 259.3 264.74 260.01 265.49 260.98 265.49 L 263.90000000000003 265.49 L 263.90000000000003 266.43 L 260.98 266.43 z" stroke-linecap="round" />
</g>
		<g transform="matrix(1 0 0 1 17.61 13.74)"  >
<path style="stroke: none; stroke-width: 1; stroke-dasharray: none; stroke-linecap: butt; stroke-dashoffset: 0; stroke-linejoin: miter; stroke-miterlimit: 4; fill: rgb(8,91,193); fill-rule: nonzero; opacity: 1;" vector-effect="non-scaling-stroke"  transform=" translate(-267.79, -263.74)" d="M 267.13 266.43 C 265.63 266.43 264.51 265.24 264.51 263.68 C 264.51 262.09000000000003 265.62 261.04 267.13 261.04 L 268.44 261.04 C 270 261.04 271.08 262.12 271.08 263.68 C 271.08 265.24 269.96999999999997 266.43 268.44 266.43 L 267.13 266.43 z M 268.44 265.49 C 269.43 265.49 270.14 264.74 270.14 263.72 C 270.14 262.70000000000005 269.44 261.98 268.44 261.98 L 267.13 261.98 C 266.17 261.98 265.45 262.70000000000005 265.45 263.72 C 265.45 264.74 266.15999999999997 265.49 267.13 265.49 L 268.44 265.49 z" stroke-linecap="round" />
</g>
		<g transform="matrix(1 0 0 1 24.53 13.74)"  >
<path style="stroke: none; stroke-width: 1; stroke-dasharray: none; stroke-linecap: butt; stroke-dashoffset: 0; stroke-linejoin: miter; stroke-miterlimit: 4; fill: rgb(8,91,193); fill-rule: nonzero; opacity: 1;" vector-effect="non-scaling-stroke"  transform=" translate(-274.71, -263.74)" d="M 271.84 266.43 L 271.84 261.04 L 274.96 261.04 C 276.47999999999996 261.04 277.58 262.12 277.58 263.68 C 277.58 265.24 276.47999999999996 266.43 274.96 266.43 L 271.84 266.43 z M 274.96 265.49 C 275.93 265.49 276.64 264.74 276.64 263.72 C 276.64 262.70000000000005 275.93 261.98 274.96 261.98 L 272.77 261.98 L 272.77 265.49 L 274.96 265.49 z" stroke-linecap="round" />
</g>
		<g transform="matrix(1 0 0 1 30.59 13.74)"  >
<path style="stroke: none; stroke-width: 1; stroke-dasharray: none; stroke-linecap: butt; stroke-dashoffset: 0; stroke-linejoin: miter; stroke-miterlimit: 4; fill: rgb(8,91,193); fill-rule: nonzero; opacity: 1;" vector-effect="non-scaling-stroke"  transform=" translate(-280.77, -263.74)" d="M 278.36 266.43 L 278.36 261.04 L 283.17 261.04 L 283.17 261.98 L 279.29 261.98 L 279.29 265.49 L 283.18 265.49 L 283.18 266.43 L 278.36 266.43 z M 279.98 264.08 L 279.98 263.28999999999996 L 282.97 263.28999999999996 L 282.97 264.08 L 279.98 264.08 z" stroke-linecap="round" />
</g>
		<g transform="matrix(1 0 0 1 38.88 13.74)"  >
<path style="stroke: none; stroke-width: 1; stroke-dasharray: none; stroke-linecap: butt; stroke-dashoffset: 0; stroke-linejoin: miter; stroke-miterlimit: 4; fill: rgb(8,91,193); fill-rule: nonzero; opacity: 1;" vector-effect="non-scaling-stroke"  transform=" translate(-289.06, -263.74)" d="M 286.16 266.43 L 286.16 261.04 L 290.11 261.04 C 291.16 261.04 291.86 261.51000000000005 291.86 262.43 C 291.86 263.11 291.51 263.45 291.11 263.58 C 291.6 263.74 291.96000000000004 264.16999999999996 291.96000000000004 264.8 C 291.96000000000004 265.79 291.28000000000003 266.43 290.22 266.43 L 286.16 266.43 z M 287.78 264.08 L 287.78 263.28999999999996 L 290.10999999999996 263.28999999999996 C 290.63999999999993 263.28999999999996 290.9 263.09999999999997 290.9 262.64 C 290.9 262.07 290.45 261.97999999999996 289.75 261.97999999999996 L 287.1 261.97999999999996 L 287.1 265.48999999999995 L 289.83000000000004 265.48999999999995 C 290.50000000000006 265.48999999999995 290.99000000000007 265.29999999999995 290.99000000000007 264.78 C 290.99000000000007 264.34 290.70000000000005 264.08 290.1700000000001 264.08 L 287.78 264.08 z" stroke-linecap="round" />
</g>
		<g transform="matrix(1 0 0 1 45 13.74)"  >
<path style="stroke: none; stroke-width: 1; stroke-dasharray: none; stroke-linecap: butt; stroke-dashoffset: 0; stroke-linejoin: miter; stroke-miterlimit: 4; fill: rgb(8,91,193); fill-rule: nonzero; opacity: 1;" vector-effect="non-scaling-stroke"  transform=" translate(-295.18, -263.74)" d="M 292.77 266.43 L 292.77 261.04 L 297.58 261.04 L 297.58 261.98 L 293.7 261.98 L 293.7 265.49 L 297.59 265.49 L 297.59 266.43 L 292.77 266.43 z M 294.4 264.08 L 294.4 263.28999999999996 L 297.39 263.28999999999996 L 297.39 264.08 L 294.4 264.08 z" stroke-linecap="round" />
</g>
		<g transform="matrix(1 0 0 1 51.19 13.74)"  >
<path style="stroke: none; stroke-width: 1; stroke-dasharray: none; stroke-linecap: butt; stroke-dashoffset: 0; stroke-linejoin: miter; stroke-miterlimit: 4; fill: rgb(8,91,193); fill-rule: nonzero; opacity: 1;" vector-effect="non-scaling-stroke"  transform=" translate(-301.37, -263.74)" d="M 300.89 266.43 L 300.89 264.38 L 298.03 261.04 L 299.29999999999995 261.04 L 301.4 263.52000000000004 L 303.51 261.04 L 304.71 261.04 L 301.84 264.38 L 301.84 266.43 L 300.89 266.43 z" stroke-linecap="round" />
</g>
		<g transform="matrix(1 0 0 1 57.49 13.74)"  >
<path style="stroke: none; stroke-width: 1; stroke-dasharray: none; stroke-linecap: butt; stroke-dashoffset: 0; stroke-linejoin: miter; stroke-miterlimit: 4; fill: rgb(8,91,193); fill-rule: nonzero; opacity: 1;" vector-effect="non-scaling-stroke"  transform=" translate(-307.67, -263.74)" d="M 307.01 266.43 C 305.5 266.43 304.39 265.24 304.39 263.68 C 304.39 262.09000000000003 305.5 261.04 307.01 261.04 L 308.32 261.04 C 309.88 261.04 310.96 262.12 310.96 263.68 C 310.96 265.24 309.85999999999996 266.43 308.32 266.43 L 307.01 266.43 z M 308.32 265.49 C 309.31 265.49 310.02 264.74 310.02 263.72 C 310.02 262.70000000000005 309.31 261.98 308.32 261.98 L 307.01 261.98 C 306.05 261.98 305.33 262.70000000000005 305.33 263.72 C 305.33 264.74 306.03999999999996 265.49 307.01 265.49 L 308.32 265.49 z" stroke-linecap="round" />
</g>
		<g transform="matrix(1 0 0 1 64.31 13.75)"  >
<path style="stroke: none; stroke-width: 1; stroke-dasharray: none; stroke-linecap: butt; stroke-dashoffset: 0; stroke-linejoin: miter; stroke-miterlimit: 4; fill: rgb(8,91,193); fill-rule: nonzero; opacity: 1;" vector-effect="non-scaling-stroke"  transform=" translate(-314.49, -263.74)" d="M 312.6 262.48 L 312.6 266.43 L 311.70000000000005 266.43 L 311.70000000000005 261.54 C 311.70000000000005 261.19 311.88000000000005 260.98 312.18000000000006 260.98 C 312.32000000000005 260.98 312.44000000000005 261.03000000000003 312.58000000000004 261.17 L 316.38000000000005 264.95 L 316.38000000000005 261 L 317.28000000000003 261 L 317.28000000000003 265.94 C 317.28000000000003 266.3 317.09000000000003 266.5 316.81 266.5 C 316.65 266.5 316.51 266.43 316.38 266.3 L 312.6 262.48 z" stroke-linecap="round" />
</g>
		<g transform="matrix(1 0 0 1 70.89 13.74)"  >
<path style="stroke: none; stroke-width: 1; stroke-dasharray: none; stroke-linecap: butt; stroke-dashoffset: 0; stroke-linejoin: miter; stroke-miterlimit: 4; fill: rgb(8,91,193); fill-rule: nonzero; opacity: 1;" vector-effect="non-scaling-stroke"  transform=" translate(-321.07, -263.74)" d="M 318.2 266.43 L 318.2 261.04 L 321.32 261.04 C 322.84 261.04 323.95 262.12 323.95 263.68 C 323.95 265.24 322.84 266.43 321.32 266.43 L 318.2 266.43 z M 321.32 265.49 C 322.29 265.49 323 264.74 323 263.72 C 323 262.70000000000005 322.29 261.98 321.32 261.98 L 319.13 261.98 L 319.13 265.49 L 321.32 265.49 z" stroke-linecap="round" />
</g>
		<g transform="matrix(1 0 0 1 79.61 13.74)"  >
<path style="stroke: none; stroke-width: 1; stroke-dasharray: none; stroke-linecap: butt; stroke-dashoffset: 0; stroke-linejoin: miter; stroke-miterlimit: 4; fill: rgb(8,91,193); fill-rule: nonzero; opacity: 1;" vector-effect="non-scaling-stroke"  transform=" translate(-329.79, -263.74)" d="M 326.89 266.43 L 326.89 261.04 L 330.84 261.04 C 331.89 261.04 332.59 261.51000000000005 332.59 262.43 C 332.59 263.11 332.23999999999995 263.45 331.84 263.58 C 332.33 263.74 332.69 264.16999999999996 332.69 264.8 C 332.69 265.79 332.01 266.43 330.95 266.43 L 326.89 266.43 z M 328.51 264.08 L 328.51 263.28999999999996 L 330.84 263.28999999999996 C 331.36999999999995 263.28999999999996 331.63 263.09999999999997 331.63 262.64 C 331.63 262.07 331.18 261.97999999999996 330.48 261.97999999999996 L 327.83000000000004 261.97999999999996 L 327.83000000000004 265.48999999999995 L 330.56000000000006 265.48999999999995 C 331.2300000000001 265.48999999999995 331.7200000000001 265.29999999999995 331.7200000000001 264.78 C 331.7200000000001 264.34 331.43000000000006 264.08 330.9000000000001 264.08 L 328.51 264.08 z" stroke-linecap="round" />
</g>
		<g transform="matrix(1 0 0 1 86.44 13.74)"  >
<path style="stroke: none; stroke-width: 1; stroke-dasharray: none; stroke-linecap: butt; stroke-dashoffset: 0; stroke-linejoin: miter; stroke-miterlimit: 4; fill: rgb(8,91,193); fill-rule: nonzero; opacity: 1;" vector-effect="non-scaling-stroke"  transform=" translate(-336.63, -263.74)" d="M 335.96 266.43 C 334.45 266.43 333.34 265.24 333.34 263.68 C 333.34 262.09000000000003 334.45 261.04 335.96 261.04 L 337.27 261.04 C 338.83 261.04 339.90999999999997 262.12 339.90999999999997 263.68 C 339.90999999999997 265.24 338.80999999999995 266.43 337.27 266.43 L 335.96 266.43 z M 337.27 265.49 C 338.26 265.49 338.96999999999997 264.74 338.96999999999997 263.72 C 338.96999999999997 262.70000000000005 338.26 261.98 337.27 261.98 L 335.96 261.98 C 335 261.98 334.28 262.70000000000005 334.28 263.72 C 334.28 264.74 334.98999999999995 265.49 335.96 265.49 L 337.27 265.49 z" stroke-linecap="round" />
</g>
		<g transform="matrix(1 0 0 1 93.67 13.74)"  >
<path style="stroke: none; stroke-width: 1; stroke-dasharray: none; stroke-linecap: butt; stroke-dashoffset: 0; stroke-linejoin: miter; stroke-miterlimit: 4; fill: rgb(8,91,193); fill-rule: nonzero; opacity: 1;" vector-effect="non-scaling-stroke"  transform=" translate(-343.85, -263.74)" d="M 345.68 266.43 L 344.32 264.93 L 342.3 264.93 L 342.3 264.1 L 344.55 264.1 C 345.22 264.1 345.58 263.71000000000004 345.58 263.02000000000004 C 345.58 262.33000000000004 345.19 261.98 344.55 261.98 L 341.61 261.98 L 341.61 266.43 L 340.68 266.43 L 340.68 261.04 L 344.55 261.04 C 345.78000000000003 261.04 346.51 261.8 346.51 263.01000000000005 C 346.51 263.90000000000003 346.09 264.53000000000003 345.4 264.80000000000007 L 347.02 266.44000000000005 L 345.68 266.44000000000005 z" stroke-linecap="round" />
</g>
		<g transform="matrix(1 0 0 1 100.19 13.74)"  >
<path style="stroke: none; stroke-width: 1; stroke-dasharray: none; stroke-linecap: butt; stroke-dashoffset: 0; stroke-linejoin: miter; stroke-miterlimit: 4; fill: rgb(8,91,193); fill-rule: nonzero; opacity: 1;" vector-effect="non-scaling-stroke"  transform=" translate(-350.38, -263.74)" d="M 347.5 266.43 L 347.5 261.04 L 350.62 261.04 C 352.14 261.04 353.25 262.12 353.25 263.68 C 353.25 265.24 352.14 266.43 350.62 266.43 L 347.5 266.43 z M 350.63 265.49 C 351.6 265.49 352.31 264.74 352.31 263.72 C 352.31 262.70000000000005 351.6 261.98 350.63 261.98 L 348.44 261.98 L 348.44 265.49 L 350.63 265.49 z" stroke-linecap="round" />
</g>
		<g transform="matrix(1 0 0 1 106.25 13.74)"  >
<path style="stroke: none; stroke-width: 1; stroke-dasharray: none; stroke-linecap: butt; stroke-dashoffset: 0; stroke-linejoin: miter; stroke-miterlimit: 4; fill: rgb(8,91,193); fill-rule: nonzero; opacity: 1;" vector-effect="non-scaling-stroke"  transform=" translate(-356.43, -263.74)" d="M 354.02 266.43 L 354.02 261.04 L 358.83 261.04 L 358.83 261.98 L 354.95 261.98 L 354.95 265.49 L 358.84 265.49 L 358.84 266.43 L 354.02 266.43 z M 355.65 264.08 L 355.65 263.28999999999996 L 358.64 263.28999999999996 L 358.64 264.08 L 355.65 264.08 z" stroke-linecap="round" />
</g>
		<g transform="matrix(1 0 0 1 112.65 13.74)"  >
<path style="stroke: none; stroke-width: 1; stroke-dasharray: none; stroke-linecap: butt; stroke-dashoffset: 0; stroke-linejoin: miter; stroke-miterlimit: 4; fill: rgb(8,91,193); fill-rule: nonzero; opacity: 1;" vector-effect="non-scaling-stroke"  transform=" translate(-362.83, -263.74)" d="M 364.66 266.43 L 363.3 264.93 L 361.28000000000003 264.93 L 361.28000000000003 264.1 L 363.53000000000003 264.1 C 364.20000000000005 264.1 364.56 263.71000000000004 364.56 263.02000000000004 C 364.56 262.33000000000004 364.17 261.98 363.53000000000003 261.98 L 360.59000000000003 261.98 L 360.59000000000003 266.43 L 359.66 266.43 L 359.66 261.04 L 363.53000000000003 261.04 C 364.76000000000005 261.04 365.49 261.8 365.49 263.01000000000005 C 365.49 263.90000000000003 365.07 264.53000000000003 364.38 264.80000000000007 L 366 266.44000000000005 L 364.66 266.44000000000005 z" stroke-linecap="round" />
</g>
		<g transform="matrix(1 0 0 1 119.11 13.74)"  >
<path style="stroke: none; stroke-width: 1; stroke-dasharray: none; stroke-linecap: butt; stroke-dashoffset: 0; stroke-linejoin: miter; stroke-miterlimit: 4; fill: rgb(8,91,193); fill-rule: nonzero; opacity: 1;" vector-effect="non-scaling-stroke"  transform=" translate(-369.29, -263.73)" d="M 366.48 266.43 L 366.48 265.49 L 370.52000000000004 265.49 C 371.02000000000004 265.49 371.31000000000006 265.21000000000004 371.31000000000006 264.78000000000003 C 371.31000000000006 264.32000000000005 371.0300000000001 264.08000000000004 370.52000000000004 264.08000000000004 L 368.04 264.08000000000004 C 367.02000000000004 264.08000000000004 366.39000000000004 263.44000000000005 366.39000000000004 262.54 C 366.39000000000004 261.67 366.98 261.03000000000003 368.05000000000007 261.03000000000003 L 371.9200000000001 261.03000000000003 L 371.9200000000001 261.97 L 368.05000000000007 261.97 C 367.62000000000006 261.97 367.37000000000006 262.22 367.37000000000006 262.63000000000005 C 367.37000000000006 263.0400000000001 367.63000000000005 263.28000000000003 368.0400000000001 263.28000000000003 L 370.5100000000001 263.28000000000003 C 371.6000000000001 263.28000000000003 372.1900000000001 263.79 372.1900000000001 264.84000000000003 C 372.1900000000001 265.74 371.6400000000001 266.42 370.5100000000001 266.42 L 366.48 266.42 z" stroke-linecap="round" />
</g>
		<g transform="matrix(1 0 0 1 -12.8 3.26)"  >
<path style="stroke: none; stroke-width: 1; stroke-dasharray: none; stroke-linecap: butt; stroke-dashoffset: 0; stroke-linejoin: miter; stroke-miterlimit: 4; fill: rgb(8,91,193); fill-rule: nonzero; opacity: 1;" vector-effect="non-scaling-stroke"  transform=" translate(-237.38, -253.26)" d="M 253.8 259.23 C 253.75 265.44 250.04000000000002 270.08000000000004 244.25 271.12 C 240.3 271.83 236.77 270.86 233.84 268.03000000000003 C 229.66 263.98 225.51 259.89000000000004 221.34 255.83000000000004 C 221.07 255.56000000000003 220.93 255.31000000000003 220.93 254.93000000000004 C 220.94 252.07000000000002 220.93 249.21000000000004 220.93 246.10000000000002 C 222.43 247.52 223.78 248.79000000000002 225.11 250.08 C 229.41000000000003 254.21 233.72000000000003 258.34000000000003 238 262.49 C 239.2 263.65000000000003 240.47 264.52 242.23 264.43 C 245.14999999999998 264.27 246.85 262.41 246.88 259.21 C 246.92 256.35999999999996 246.9 253.48999999999998 246.9 250.62999999999997 C 246.9 246.13999999999996 246.9 241.66999999999996 246.89000000000001 237.17999999999998 C 246.9 236.51 246.9 235.84999999999997 246.89000000000001 235.17999999999998 C 247.72000000000003 236.10999999999999 248.92000000000002 236.67999999999998 250.26000000000002 236.67999999999998 C 251.46 236.67999999999998 252.55 236.20999999999998 253.36 235.43999999999997 C 253.68 235.77999999999997 253.82000000000002 236.13999999999996 253.82000000000002 236.62999999999997 L 253.82000000000002 237.03999999999996 C 253.81 244.43 253.85 251.84 253.8 259.23 z" stroke-linecap="round" />
</g>
		<g transform="matrix(1 0 0 1 -27.23 -3.71)"  >
<path style="stroke: none; stroke-width: 1; stroke-dasharray: none; stroke-linecap: butt; stroke-dashoffset: 0; stroke-linejoin: miter; stroke-miterlimit: 4; fill: rgb(28,209,131); fill-rule: nonzero; opacity: 1;" vector-effect="non-scaling-stroke"  transform=" translate(-222.95, -246.29)" d="M 239.35 248.2 C 239.18 249.70999999999998 239.32 251.25 239.32 253.13 C 238.2 252.09 237.28 251.24 236.38 250.37 C 231.51999999999998 245.71 226.68 241.04 221.81 236.4 C 219.8 234.47 217.01 234.27 215.08 235.91 C 213.83 236.97 213.43 238.45 213.43 240.04999999999998 C 213.42000000000002 247.61999999999998 213.42000000000002 255.17999999999998 213.41 262.74 L 213.41 264.69 C 212.59 263.84 211.44 263.32 210.17 263.32 C 209.13 263.32 208.17 263.67 207.41 264.26 C 207.18 264.03 206.95 263.81 206.72 263.58 C 206.55 263.41999999999996 206.51 263.24 206.49 263.03999999999996 C 206.48000000000002 262.92999999999995 206.48000000000002 262.80999999999995 206.48000000000002 262.7 C 206.49 255.08999999999997 206.47000000000003 247.48999999999998 206.51000000000002 239.88 C 206.53000000000003 236.94 207.41000000000003 234.25 209.3 231.94 C 213.13000000000002 227.26 220.78 226.47 225.41000000000003 230.41 C 229.3 233.7 232.63000000000002 237.60999999999999 236.48000000000002 240.91 C 238.85 242.97 239.7 245.22 239.35 248.2 z" stroke-linecap="round" />
</g>
		<g transform="matrix(1 0 0 1 -40.02 17.85)"  >
<path style="stroke: none; stroke-width: 1; stroke-dasharray: none; stroke-linecap: butt; stroke-dashoffset: 0; stroke-linejoin: miter; stroke-miterlimit: 4; fill: rgb(28,209,131); fill-rule: nonzero; opacity: 1;" vector-effect="non-scaling-stroke"  transform=" translate(-210.16, -267.85)" d="M 213.4 262.75 C 212.46 262.15 211.35 261.81 210.16 261.81 C 208.78 261.81 207.5 262.27 206.49 263.05 C 205.05 264.16 204.11 265.90000000000003 204.11 267.85 C 204.11 271.18 206.83 273.89000000000004 210.16000000000003 273.89000000000004 C 213.49000000000004 273.89000000000004 216.20000000000002 271.18000000000006 216.20000000000002 267.85 C 216.2 265.71 215.08 263.83 213.4 262.75 z M 210.15 272.38 C 207.65 272.38 205.62 270.35 205.62 267.86 C 205.62 266.40000000000003 206.32 265.1 207.4 264.27000000000004 C 208.16 263.68000000000006 209.12 263.33000000000004 210.16 263.33000000000004 C 211.43 263.33000000000004 212.57999999999998 263.85 213.4 264.70000000000005 C 214.19 265.51000000000005 214.68 266.64000000000004 214.68 267.86000000000007 C 214.68 270.35 212.65 272.38 210.15 272.38 z" stroke-linecap="round" />
</g>
		<g transform="matrix(1 0 0 1 0.08 -17.85)"  >
<path style="stroke: none; stroke-width: 1; stroke-dasharray: none; stroke-linecap: butt; stroke-dashoffset: 0; stroke-linejoin: miter; stroke-miterlimit: 4; fill: rgb(8,91,193); fill-rule: nonzero; opacity: 1;" vector-effect="non-scaling-stroke"  transform=" translate(-250.25, -232.15)" d="M 250.26 226.1 C 246.92 226.1 244.20999999999998 228.82 244.20999999999998 232.15 C 244.20999999999998 234.24 245.26999999999998 236.07 246.89 237.17000000000002 C 247.85 237.82000000000002 249.01 238.19000000000003 250.26 238.19000000000003 C 251.59 238.19000000000003 252.82999999999998 237.76000000000002 253.82 237.03000000000003 C 255.32 235.93000000000004 256.3 234.15000000000003 256.3 232.15000000000003 C 256.3 228.82 253.59 226.1 250.26 226.1 z M 253.36 235.43 C 252.55 236.20000000000002 251.45000000000002 236.67000000000002 250.26000000000002 236.67000000000002 C 248.92000000000002 236.67000000000002 247.72000000000003 236.09 246.89000000000001 235.17000000000002 C 246.17000000000002 234.37 245.73000000000002 233.32000000000002 245.73000000000002 232.15 C 245.73000000000002 230.99 246.17000000000002 229.93 246.89000000000001 229.13 C 247.72000000000003 228.2 248.92000000000002 227.62 250.26000000000002 227.62 C 252.75000000000003 227.62 254.78000000000003 229.65 254.78000000000003 232.15 C 254.78 233.44 254.24 234.61 253.36 235.43 z" stroke-linecap="round" />
</g>
		<g transform="matrix(1 0 0 1 0.08 -18.02)"  >
<circle style="stroke: none; stroke-width: 1; stroke-dasharray: none; stroke-linecap: butt; stroke-dashoffset: 0; stroke-linejoin: miter; stroke-miterlimit: 4; fill: rgb(8,91,193); fill-rule: nonzero; opacity: 1;" vector-effect="non-scaling-stroke"  cx="0" cy="0" r="2.45" />
</g>
		<g transform="matrix(1 0 0 1 -40.03 17.87)"  >
<circle style="stroke: none; stroke-width: 1; stroke-dasharray: none; stroke-linecap: butt; stroke-dashoffset: 0; stroke-linejoin: miter; stroke-miterlimit: 4; fill: rgb(28,209,131); fill-rule: nonzero; opacity: 1;" vector-effect="non-scaling-stroke"  cx="0" cy="0" r="2.45" />
</g>
		<g transform="matrix(1 0 0 1 -90.15 14.4)"  >
<rect style="stroke: none; stroke-width: 1; stroke-dasharray: none; stroke-linecap: butt; stroke-dashoffset: 0; stroke-linejoin: miter; stroke-miterlimit: 4; fill: rgb(8,91,193); fill-rule: nonzero; opacity: 1;" vector-effect="non-scaling-stroke"  x="-39.08" y="-0.395" rx="0" ry="0" width="78.16" height="0.79" />
</g>
		<g transform="matrix(1 0 0 1 124.05 -15.57)"  >
<path style="stroke: none; stroke-width: 1; stroke-dasharray: none; stroke-linecap: butt; stroke-dashoffset: 0; stroke-linejoin: miter; stroke-miterlimit: 4; fill: rgb(8,91,193); fill-rule: nonzero; opacity: 1;" vector-effect="non-scaling-stroke"  transform=" translate(-374.23, -234.43)" d="M 375.03 236.86 L 373.90999999999997 234.92000000000002 L 373.29999999999995 234.92000000000002 L 373.29999999999995 236.86 L 372.49999999999994 236.86 L 372.49999999999994 232 L 374.17999999999995 232 C 374.54999999999995 232 374.86999999999995 232.07 375.12999999999994 232.2 C 375.38999999999993 232.32999999999998 375.5799999999999 232.51 375.7099999999999 232.72 C 375.8399999999999 232.93 375.8999999999999 233.18 375.8999999999999 233.45 C 375.8999999999999 233.76999999999998 375.80999999999995 234.04999999999998 375.61999999999995 234.31 C 375.43999999999994 234.57 375.1499999999999 234.74 374.7699999999999 234.84 L 375.9699999999999 236.85 L 375.03 236.85 z M 373.3 234.28 L 374.18 234.28 C 374.48 234.28 374.7 234.21 374.85 234.06 C 375 233.91 375.08000000000004 233.71 375.08000000000004 233.46 C 375.08000000000004 233.21 375.01000000000005 233.01000000000002 374.86 232.87 C 374.71 232.73 374.48 232.66 374.18 232.66 L 373.3 232.66 L 373.3 234.28 z" stroke-linecap="round" />
</g>
		<g transform="matrix(1 0 0 1 124.06 -15.56)"  >
<path style="stroke: none; stroke-width: 1; stroke-dasharray: none; stroke-linecap: butt; stroke-dashoffset: 0; stroke-linejoin: miter; stroke-miterlimit: 4; fill: rgb(8,91,193); fill-rule: nonzero; opacity: 1;" vector-effect="non-scaling-stroke"  transform=" translate(-374.24, -234.43)" d="M 374.24 239.6 C 371.39 239.6 369.07 237.28 369.07 234.43 C 369.07 231.58 371.39 229.26000000000002 374.24 229.26000000000002 C 377.09000000000003 229.26000000000002 379.41 231.58 379.41 234.43 C 379.41 237.28 377.09 239.6 374.24 239.6 z M 374.24 229.78 C 371.68 229.78 369.6 231.86 369.6 234.42 C 369.6 236.97999999999996 371.68 239.05999999999997 374.24 239.05999999999997 C 376.8 239.05999999999997 378.88 236.97999999999996 378.88 234.42 C 378.88 231.86 376.8 229.78 374.24 229.78 z" stroke-linecap="round" />
</g>
</g>
</g>
</svg>